<?xml version="1.0" encoding="UTF-8"?>
<svg version="1.1" xmlns="http://www.w3.org/2000/svg" width="651" height="743">
<path d="M0 0 C214.83 0 429.66 0 651 0 C651 245.19 651 490.38 651 743 C436.17 743 221.34 743 0 743 C0 497.81 0 252.62 0 0 Z " fill="#D93817" transform="translate(0,0)"/>
<path d="M0 0 C214.83 0 429.66 0 651 0 C651 245.19 651 490.38 651 743 C544.41 743 437.82 743 328 743 C330.62978489 741.24681007 333.25606966 739.71945859 336.0234375 738.19921875 C349.06912896 730.99090733 361.89631146 723.54794965 374.49462891 715.58349609 C377.02747369 713.98263552 379.56586399 712.39089195 382.10546875 710.80078125 C416.00665013 689.53814017 448.70966687 665.9932913 478.05078125 638.703125 C480.21122276 636.69904837 482.42656978 634.77295361 484.6640625 632.85546875 C489.52302144 628.61933529 494.07251743 624.07793746 498.6184082 619.51196289 C500.06025221 618.06475615 501.50737116 616.62297974 502.95507812 615.18164062 C508.18309155 609.95771246 513.21169561 604.62973162 518 599 C518.94909216 597.91671538 519.89955992 596.83463404 520.8515625 595.75390625 C545.4685208 567.53617987 565.21521123 536.41128791 582 503 C582.4017041 502.2059375 582.8034082 501.411875 583.21728516 500.59375 C604.56998925 458.08849499 616.88184525 411.99059262 626.27441406 365.58447266 C626.71482344 363.40880292 627.1585596 361.23379829 627.60839844 359.06005859 C631.17139014 341.8346367 633.61218566 324.4199996 636 307 C636.18062988 305.69562988 636.36125977 304.39125977 636.54736328 303.04736328 C639.83888763 278.79288516 641.50704537 254.41955411 643.16796875 230.0078125 C643.2375882 228.99402527 643.30720764 227.98023804 643.37893677 226.93572998 C644.46800141 210.56372454 645.16063711 194.24433903 645.16796875 177.8359375 C645.17119469 176.09811376 645.17455968 174.36029026 645.17805481 172.62246704 C645.18396162 169.03118253 645.18590273 165.43992182 645.18530273 161.84863281 C645.18519962 157.24202101 645.19904009 152.63555823 645.21607494 148.02898216 C645.22714847 144.46376838 645.22922366 140.89859181 645.22869301 137.33336258 C645.22987288 135.63244725 645.23429508 133.93153095 645.24202538 132.23063278 C645.25176448 129.87418366 645.24897566 127.51807506 645.24291992 125.16162109 C645.25134918 124.11147575 645.25134918 124.11147575 645.25994873 123.04011536 C645.3359096 119.07649215 645.3359096 119.07649215 643 116 C640.32086155 115.4255347 637.6940049 114.95948231 634.98828125 114.5546875 C633.28333794 114.28419304 631.57842391 114.01351395 629.87353516 113.74267578 C628.96855286 113.60186584 628.06357056 113.46105591 627.13116455 113.315979 C564.65038506 103.54088466 501.74451347 88.71420257 443 65 C442.35963806 64.74172424 441.71927612 64.48344849 441.05950928 64.21734619 C420.64137129 55.9603423 400.69307127 46.85709897 381 37 C380.06333496 36.53561523 379.12666992 36.07123047 378.16162109 35.59277344 C363.2019881 28.14465692 349.00622152 19.50766369 334.8046875 10.7265625 C333.87914062 10.15679687 332.95359375 9.58703125 332 9 C331.17757813 8.38898437 330.35515625 7.77796875 329.5078125 7.1484375 C326.99116719 5.69749142 326.99116719 5.69749142 324.03125 6.60791016 C321.02241563 7.98970571 318.29367345 9.49747339 315.5 11.2734375 C313.93958984 12.25413208 313.93958984 12.25413208 312.34765625 13.25463867 C311.24292969 13.95435791 310.13820313 14.65407715 309 15.375 C297.24306852 22.7270028 285.29711403 29.5869775 273 36 C272.02724121 36.51095215 271.05448242 37.0219043 270.05224609 37.54833984 C217.58854274 64.95550654 160.51806091 84.42340922 103 98 C102.14321655 98.20302734 101.28643311 98.40605469 100.40368652 98.61523438 C72.88923979 105.11993752 45.36008564 110.44426375 17.38720703 114.52734375 C15.75887939 114.77677734 15.75887939 114.77677734 14.09765625 115.03125 C13.15543213 115.17111328 12.21320801 115.31097656 11.24243164 115.45507812 C8.81389047 115.83935008 8.81389047 115.83935008 7 118 C6.68501667 120.85898279 6.68501667 120.85898279 6.7253418 124.26733398 C6.71779011 125.23934486 6.71779011 125.23934486 6.71008587 126.23099232 C6.69626039 128.40277703 6.69737868 130.57426952 6.69921875 132.74609375 C6.69417189 134.28619563 6.68859642 135.82629586 6.68252563 137.36639404 C6.67019198 141.52507487 6.67358246 145.68359604 6.68234634 149.84228134 C6.68749493 152.43494666 6.6894807 155.02760004 6.69100952 157.62026978 C6.72366399 189.49043355 7.79289868 221.19988937 10 253 C10.08701172 254.28161011 10.08701172 254.28161011 10.17578125 255.58911133 C11.8800732 280.53213409 15.36778249 305.27590961 19 330 C19.10528015 330.721875 19.2105603 331.44375 19.31903076 332.1875 C28.47661968 394.79784341 45.77460225 455.28897034 74 512 C74.38478516 512.77891602 74.76957031 513.55783203 75.16601562 514.36035156 C85.12410288 534.37665309 97.50665122 553.20474185 111 571 C111.7108374 571.93827637 111.7108374 571.93827637 112.43603516 572.89550781 C117.44034544 579.45939853 122.64366731 585.84558247 128 592.125 C128.43771729 592.63836914 128.87543457 593.15173828 129.32641602 593.68066406 C138.12041145 603.87065698 147.39510655 613.56000515 156.92602539 623.05639648 C158.69991003 624.82487219 160.46831777 626.59870044 162.23632812 628.37304688 C167.98825978 634.12869789 173.77224472 639.75450713 180 645 C181.11845302 645.9725048 182.23566897 646.94643439 183.3515625 647.921875 C190.7820745 654.35791062 198.36655467 660.53682763 206.14404297 666.54736328 C208.02302457 668.01802107 209.87416357 669.51859474 211.72265625 671.02734375 C226.16225882 682.69397671 241.75008704 692.69958564 257.26251221 702.86010742 C259.52206463 704.34250462 261.77479309 705.83511607 264.02734375 707.328125 C282.82479214 719.72185147 302.39602155 730.94286848 322 742 C322 742.33 322 742.66 322 743 C215.74 743 109.48 743 0 743 C0 497.81 0 252.62 0 0 Z " fill="#FEFEFE" transform="translate(0,0)"/>
<path d="M0 0 C6.51192514 1.17311125 12.17791226 3.12077555 18.125 6 C19.35669922 6.59167969 19.35669922 6.59167969 20.61328125 7.1953125 C42.67587963 18.07268659 63.30943701 35.29447673 78 55 C78.39493652 55.51997559 78.78987305 56.03995117 79.19677734 56.57568359 C107.05880586 93.38832089 115.79026745 135.02965162 110.72070312 180.5715332 C110.0624432 186.66103814 109.77721968 192.68750517 109.75 198.8125 C109.74097656 199.61888916 109.73195313 200.42527832 109.72265625 201.25610352 C109.76343399 209.34963483 111.35086771 216.28458669 116 223 C121.85627366 227.54159998 126.74297767 228.81025007 134 228 C137.89821666 226.92628067 140.92327656 225.50166177 143.31640625 222.1640625 C144.37168556 220.13138427 145.22530089 218.15535099 146 216 C146.33644531 215.13890625 146.67289062 214.2778125 147.01953125 213.390625 C148.33360319 208.84634435 148.7753277 204.31506706 149.3125 199.625 C151.03758034 186.01703446 153.96936943 172.45352229 162 161 C163.485 160.01 163.485 160.01 165 159 C165.23291748 159.58555664 165.46583496 160.17111328 165.70581055 160.77441406 C172.37632963 177.50235133 179.32239133 193.95435248 187.5 210 C204.46269961 243.37422397 216.16853167 275.96508024 216.1875 313.75 C216.19974609 315.0184375 216.21199219 316.286875 216.22460938 317.59375 C216.24304166 329.63617459 214.74236643 341.21605142 211.75 352.875 C211.53384033 353.7215918 211.31768066 354.56818359 211.0949707 355.44042969 C199.52370269 399.34936972 169.1462447 436.59756654 130.35327148 459.70727539 C88.57451518 483.88531011 88.57451518 483.88531011 71.69140625 480.54296875 C71.13324219 480.36378906 70.57507813 480.18460938 70 480 C71.01707031 479.29037109 71.01707031 479.29037109 72.0546875 478.56640625 C78.79700859 473.77580969 84.99864881 468.68695066 91 463 C91.90878906 462.15566406 92.81757813 461.31132813 93.75390625 460.44140625 C105.1449574 449.52564235 112.45301032 437.15299332 119 423 C119.41121094 422.14019531 119.82242187 421.28039062 120.24609375 420.39453125 C129.72173373 398.97294825 130.25967448 372.66997036 122.18652344 350.79589844 C115.48645568 333.53005385 106.04342853 319.08032649 93 306 C92.19433594 305.18789063 91.38867188 304.37578125 90.55859375 303.5390625 C88.66353029 301.65846517 86.75649321 299.79556814 84.8359375 297.94140625 C61.92139623 275.67373955 45.42660188 250.23111243 44.58178711 217.46337891 C44.50197562 205.45932699 45.95247841 193.80981202 48 182 C28.27761585 192.80102119 12.05150249 206.82126485 0 226 C-0.38881348 226.61423828 -0.77762695 227.22847656 -1.17822266 227.86132812 C-16.54689685 252.55759074 -23.30574427 280.77981916 -16.66015625 309.4296875 C-13.9689052 319.90804957 -10.72027599 330.3353137 -7.10180664 340.53076172 C-4.67279468 347.38718351 -3.90182669 353.73113855 -5 361 C-7.18397031 365.18937701 -10.12470785 367.4164719 -14 370 C-21.5364132 371.19297865 -27.35513572 370.2052984 -33.62890625 365.87890625 C-46.34538903 355.80208876 -52.79639052 343.06044668 -58 328 C-69.21498748 345.00336812 -74.57297661 361.97642507 -74.375 382.5 C-74.38660156 383.70269531 -74.39820313 384.90539062 -74.41015625 386.14453125 C-74.3089564 417.55021913 -57.62525058 447.52789863 -35.8125 469.375 C-34.54951558 470.5915349 -33.28197307 471.8034918 -32 473 C-34 474 -34 474 -37.1328125 473.1015625 C-76.77261908 458.87602743 -110.16468907 427.29130198 -128.3125 389.5 C-136.72177102 371.45554165 -142.43783513 352.02712345 -143 332 C-143.02578125 331.25121582 -143.0515625 330.50243164 -143.078125 329.73095703 C-144.69278452 277.24443099 -124.2959425 230.50530683 -92 190 C-90.81277344 188.49179687 -90.81277344 188.49179687 -89.6015625 186.953125 C-79.67598117 174.55510644 -68.4681509 163.33641523 -57.1875 152.1875 C-46.76716879 141.90115419 -46.76716879 141.90115419 -37 131 C-36.05147247 129.91622096 -35.10100183 128.83413894 -34.1484375 127.75390625 C-8.77071549 98.68035556 7.68410423 69.16850747 6.19677734 29.58447266 C5.63901853 22.25887112 3.7968016 15.10435207 2 8 C1.80889648 7.23220215 1.61779297 6.4644043 1.42089844 5.67333984 C0.94992676 3.78156207 0.47534727 1.89068307 0 0 Z " fill="#F18421" transform="translate(291,96)"/>
<path d="M0 0 C4.52615993 3.67832017 8.39424999 7.41086363 12 12 C9.03 11.01 6.06 10.02 3 9 C3.66 8.34 4.32 7.68 5 7 C4.175 6.21625 3.35 5.4325 2.5 4.625 C0 2 0 2 0 0 Z " fill="#F59222" transform="translate(247,558)"/>
<path d="M0 0 C0.66 0 1.32 0 2 0 C2 3.63 2 7.26 2 11 C1.01 10.34 0.02 9.68 -1 9 C-1.47114738 6.2572492 -1.17805784 3.80441103 -1 1 C-0.67 0.67 -0.34 0.34 0 0 Z " fill="#D94629" transform="translate(10,244)"/>
<path d="M0 0 C-2.57642867 2.11635213 -4.62505968 3.67339287 -8 4 C-8.99 3.34 -9.98 2.68 -11 2 C-7.17679443 0.57741188 -4.08718695 -0.24042276 0 0 Z " fill="#D5220C" transform="translate(117,95)"/>
</svg>
